<svg xmlns="http://www.w3.org/2000/svg" viewBox="0 0 800 600">
  <defs>
    <linearGradient id="bg" x1="0" x2="1" y1="0" y2="1">
      <stop offset="0%" stop-color="#111827"/>
      <stop offset="100%" stop-color="#0f766e"/>
    </linearGradient>
  </defs>
  <rect width="800" height="600" fill="url(#bg)"/>
  <rect x="52" y="52" width="696" height="496" rx="34" fill="#ecfeff" fill-opacity="0.06" stroke="#99f6e4" stroke-opacity="0.35"/>
  <text x="98" y="108" font-family="Inter, Arial, sans-serif" font-size="30" font-weight="700" fill="#ccfbf1">Evo-1</text>
  <g transform="translate(102 154)">
    <rect width="144" height="118" rx="18" fill="#111827" stroke="#5eead4" stroke-opacity="0.5"/>
    <rect x="40" y="28" width="64" height="64" rx="16" fill="#5eead4" fill-opacity="0.22"/>
    <path d="M62 58 H82 M72 48 V68" stroke="#99f6e4" stroke-width="8" stroke-linecap="round"/>
  </g>
  <g transform="translate(316 154)">
    <rect width="144" height="118" rx="18" fill="#111827" stroke="#5eead4" stroke-opacity="0.5"/>
    <circle cx="72" cy="59" r="28" fill="#14b8a6" fill-opacity="0.3"/>
    <path d="M54 60 L68 74 L92 46" stroke="#ccfbf1" stroke-width="8" fill="none" stroke-linecap="round" stroke-linejoin="round"/>
  </g>
  <g transform="translate(530 154)">
    <rect width="144" height="118" rx="18" fill="#111827" stroke="#5eead4" stroke-opacity="0.5"/>
    <path d="M42 78 C54 36 90 36 102 78" stroke="#99f6e4" stroke-width="8" fill="none"/>
    <circle cx="72" cy="54" r="16" fill="#5eead4" fill-opacity="0.24"/>
  </g>
  <rect x="102" y="332" width="574" height="26" rx="13" fill="#d1fae5" fill-opacity="0.82"/>
  <rect x="102" y="378" width="500" height="18" rx="9" fill="#d1fae5" fill-opacity="0.48"/>
  <rect x="102" y="412" width="540" height="18" rx="9" fill="#d1fae5" fill-opacity="0.48"/>
  <rect x="102" y="446" width="420" height="18" rx="9" fill="#d1fae5" fill-opacity="0.48"/>
</svg>
