<svg xmlns="http://www.w3.org/2000/svg" viewBox="0 0 800 600">
  <defs>
    <linearGradient id="bg" x1="0" x2="1" y1="0" y2="1">
      <stop offset="0%" stop-color="#0f172a"/>
      <stop offset="100%" stop-color="#7c2d12"/>
    </linearGradient>
  </defs>
  <rect width="800" height="600" fill="url(#bg)"/>
  <rect x="58" y="58" width="684" height="484" rx="34" fill="#fff7ed" fill-opacity="0.05" stroke="#fdba74" stroke-opacity="0.35"/>
  <text x="104" y="110" font-family="Inter, Arial, sans-serif" font-size="28" font-weight="700" fill="#ffedd5">FocusDepth</text>
  <rect x="104" y="148" width="252" height="252" rx="24" fill="#111827" stroke="#fdba74" stroke-opacity="0.42"/>
  <rect x="148" y="188" width="164" height="164" rx="20" fill="#fb923c" fill-opacity="0.18" stroke="#fdba74" stroke-width="6" stroke-dasharray="12 10"/>
  <circle cx="230" cy="270" r="44" fill="#fdba74" fill-opacity="0.28"/>
  <circle cx="230" cy="270" r="18" fill="#ffedd5"/>
  <g transform="translate(414 160)">
    <rect width="286" height="46" rx="23" fill="#ffedd5" fill-opacity="0.88"/>
    <rect y="76" width="238" height="20" rx="10" fill="#fed7aa" fill-opacity="0.54"/>
    <rect y="112" width="264" height="20" rx="10" fill="#fed7aa" fill-opacity="0.54"/>
    <rect y="148" width="214" height="20" rx="10" fill="#fed7aa" fill-opacity="0.54"/>
  </g>
  <g transform="translate(408 340)">
    <rect width="292" height="140" rx="22" fill="#111827" stroke="#fdba74" stroke-opacity="0.34"/>
    <path d="M24 100 C62 24 118 24 154 82 C184 128 234 126 268 62" stroke="#fb923c" stroke-width="10" fill="none" stroke-linecap="round"/>
    <path d="M24 112 C62 42 118 48 154 94 C184 132 234 132 268 88" stroke="#ffedd5" stroke-width="4" fill="none" stroke-linecap="round"/>
  </g>
</svg>
