<svg xmlns="http://www.w3.org/2000/svg" viewBox="0 0 800 600">
  <defs>
    <linearGradient id="bg" x1="0" x2="1" y1="0" y2="1">
      <stop offset="0%" stop-color="#0f172a"/>
      <stop offset="100%" stop-color="#1d4ed8"/>
    </linearGradient>
    <linearGradient id="panel" x1="0" x2="1" y1="0" y2="1">
      <stop offset="0%" stop-color="#60a5fa" stop-opacity="0.28"/>
      <stop offset="100%" stop-color="#22d3ee" stop-opacity="0.12"/>
    </linearGradient>
  </defs>
  <rect width="800" height="600" fill="url(#bg)"/>
  <rect x="56" y="56" width="688" height="488" rx="32" fill="url(#panel)" stroke="#93c5fd" stroke-opacity="0.45"/>
  <rect x="108" y="132" width="180" height="260" rx="22" fill="#dbeafe" fill-opacity="0.18" stroke="#dbeafe" stroke-opacity="0.55"/>
  <path d="M150 340 L202 238 L252 316" stroke="#e0f2fe" stroke-width="18" fill="none" stroke-linecap="round" stroke-linejoin="round"/>
  <circle cx="208" cy="214" r="34" fill="#67e8f9" fill-opacity="0.85"/>
  <rect x="338" y="138" width="330" height="34" rx="17" fill="#e0f2fe" fill-opacity="0.88"/>
  <rect x="338" y="196" width="266" height="22" rx="11" fill="#dbeafe" fill-opacity="0.56"/>
  <rect x="338" y="236" width="292" height="22" rx="11" fill="#dbeafe" fill-opacity="0.56"/>
  <rect x="338" y="276" width="228" height="22" rx="11" fill="#dbeafe" fill-opacity="0.56"/>
  <g transform="translate(330 354)">
    <rect x="0" y="0" width="124" height="108" rx="16" fill="#0b1220" stroke="#60a5fa" stroke-opacity="0.42"/>
    <rect x="144" y="0" width="124" height="108" rx="16" fill="#0b1220" stroke="#60a5fa" stroke-opacity="0.42"/>
    <rect x="288" y="0" width="124" height="108" rx="16" fill="#0b1220" stroke="#60a5fa" stroke-opacity="0.42"/>
    <path d="M24 84 Q62 22 100 70" stroke="#38bdf8" stroke-width="8" fill="none"/>
    <path d="M168 88 Q206 30 244 76" stroke="#67e8f9" stroke-width="8" fill="none"/>
    <path d="M312 90 Q350 18 388 68" stroke="#93c5fd" stroke-width="8" fill="none"/>
  </g>
  <text x="108" y="100" font-family="Inter, Arial, sans-serif" font-size="28" font-weight="700" fill="#e0f2fe">Evo-Depth</text>
</svg>
